<svg xmlns="http://www.w3.org/2000/svg" width="600" height="300"><path d="M294,130L345,118L305,99Z" fill="#55bac1" stroke="#55bac1" stroke-width="1.51"/><path d="M294,130L342,172L345,118Z" fill="#45b3c3" stroke="#45b3c3" stroke-width="1.51"/><path d="M294,130L265,167L342,172Z" fill="#40b4c4" stroke="#40b4c4" stroke-width="1.51"/><path d="M235,91L265,167L294,130Z" fill="#5bbec1" stroke="#5bbec1" stroke-width="1.51"/><path d="M342,172L354,183L345,118Z" fill="#39abc3" stroke="#39abc3" stroke-width="1.51"/><path d="M296,207L354,183L342,172Z" fill="#34a5c3" stroke="#34a5c3" stroke-width="1.51"/><path d="M265,167L296,207L342,172Z" fill="#3aacc3" stroke="#3aacc3" stroke-width="1.51"/><path d="M305,99L235,91L294,130Z" fill="#62c0c0" stroke="#62c0c0" stroke-width="1.51"/><path d="M265,167L262,200L296,207Z" fill="#43acc2" stroke="#43acc2" stroke-width="1.51"/><path d="M191,145L262,200L265,167Z" fill="#54b6c1" stroke="#54b6c1" stroke-width="1.51"/><path d="M345,118L370,33L305,99Z" fill="#66bbbf" stroke="#66bbbf" stroke-width="1.51"/><path d="M305,99L269,7L235,91Z" fill="#7ecabd" stroke="#7ecabd" stroke-width="1.51"/><path d="M416,94L398,62L345,118Z" fill="#5bb0be" stroke="#5bb0be" stroke-width="1.51"/><path d="M431,160L416,94L345,118Z" fill="#47a9c0" stroke="#47a9c0" stroke-width="1.51"/><path d="M398,62L370,33L345,118Z" fill="#6cb8be" stroke="#6cb8be" stroke-width="1.51"/><path d="M370,33L317,19L305,99Z" fill="#7fc5be" stroke="#7fc5be" stroke-width="1.51"/><path d="M235,91L191,145L265,167Z" fill="#63c1c0" stroke="#63c1c0" stroke-width="1.51"/><path d="M231,26L215,81L235,91Z" fill="#88cfbc" stroke="#88cfbc" stroke-width="1.51"/><path d="M296,207L342,234L354,183Z" fill="#2e9fc2" stroke="#2e9fc2" stroke-width="1.51"/><path d="M354,183L431,160L345,118Z" fill="#35a7c3" stroke="#35a7c3" stroke-width="1.51"/><path d="M305,265L342,234L296,207Z" fill="#3396bd" stroke="#3396bd" stroke-width="1.51"/><path d="M370,33L338,5L317,19Z" fill="#90c8bc" stroke="#90c8bc" stroke-width="1.51"/><path d="M317,19L269,7L305,99Z" fill="#88cdbd" stroke="#88cdbd" stroke-width="1.51"/><path d="M420,192L431,160L354,183Z" fill="#2a9bc1" stroke="#2a9bc1" stroke-width="1.51"/><path d="M342,234L420,192L354,183Z" fill="#2899c1" stroke="#2899c1" stroke-width="1.51"/><path d="M312,-20L269,7L317,19Z" fill="#9ad3bc" stroke="#9ad3bc" stroke-width="1.51"/><path d="M269,7L231,26L235,91Z" fill="#94d2bb" stroke="#94d2bb" stroke-width="1.51"/><path d="M215,81L191,145L235,91Z" fill="#75c8bd" stroke="#75c8bd" stroke-width="1.51"/><path d="M134,62L191,145L215,81Z" fill="#84cebb" stroke="#84cebb" stroke-width="1.51"/><path d="M269,7L203,-33L231,26Z" fill="#a8dab9" stroke="#a8dab9" stroke-width="1.51"/><path d="M338,5L312,-20L317,19Z" fill="#98cebc" stroke="#98cebc" stroke-width="1.51"/><path d="M374,-52L312,-20L338,5Z" fill="#9fcebb" stroke="#9fcebb" stroke-width="1.51"/><path d="M262,200L305,265L296,207Z" fill="#3a9fbf" stroke="#3a9fbf" stroke-width="1.51"/><path d="M416,281L462,215L420,192Z" fill="#2281b9" stroke="#2281b9" stroke-width="1.51"/><path d="M239,278L305,265L262,200Z" fill="#4497b9" stroke="#4497b9" stroke-width="1.51"/><path d="M231,26L189,53L215,81Z" fill="#94d4ba" stroke="#94d4ba" stroke-width="1.51"/><path d="M370,33L388,-24L338,5Z" fill="#93c5bc" stroke="#93c5bc" stroke-width="1.51"/><path d="M398,62L448,38L370,33Z" fill="#7cb7bc" stroke="#7cb7bc" stroke-width="1.51"/><path d="M416,94L448,38L398,62Z" fill="#6eaeba" stroke="#6eaeba" stroke-width="1.51"/><path d="M486,119L448,38L416,94Z" fill="#60a3b8" stroke="#60a3b8" stroke-width="1.51"/><path d="M448,38L388,-24L370,33Z" fill="#8bbdbb" stroke="#8bbdbb" stroke-width="1.51"/><path d="M431,160L484,131L416,94Z" fill="#459cbc" stroke="#459cbc" stroke-width="1.51"/><path d="M462,215L484,131L431,160Z" fill="#318fbb" stroke="#318fbb" stroke-width="1.51"/><path d="M484,131L486,119L416,94Z" fill="#4e99b9" stroke="#4e99b9" stroke-width="1.51"/><path d="M191,145L172,206L262,200Z" fill="#5cb6bf" stroke="#5cb6bf" stroke-width="1.51"/><path d="M147,213L172,206L116,149Z" fill="#77bcbd" stroke="#77bcbd" stroke-width="1.51"/><path d="M420,192L462,215L431,160Z" fill="#298ebd" stroke="#298ebd" stroke-width="1.51"/><path d="M416,281L420,192L342,234Z" fill="#2388bb" stroke="#2388bb" stroke-width="1.51"/><path d="M172,206L190,234L262,200Z" fill="#57acbe" stroke="#57acbe" stroke-width="1.51"/><path d="M190,234L239,278L262,200Z" fill="#519fbb" stroke="#519fbb" stroke-width="1.51"/><path d="M305,265L314,302L342,234Z" fill="#3487b7" stroke="#3487b7" stroke-width="1.51"/><path d="M256,323L314,302L305,265Z" fill="#3f81b2" stroke="#3f81b2" stroke-width="1.51"/><path d="M388,-24L374,-52L338,5Z" fill="#9dc8bb" stroke="#9dc8bb" stroke-width="1.51"/><path d="M404,-50L374,-52L388,-24Z" fill="#9fc6be" stroke="#9fc6be" stroke-width="1.51"/><path d="M312,-20L267,-53L269,7Z" fill="#a6d7bb" stroke="#a6d7bb" stroke-width="1.51"/><path d="M231,26L203,-33L189,53Z" fill="#a8dbb8" stroke="#a8dbb8" stroke-width="1.51"/><path d="M314,-79L267,-53L312,-20Z" fill="#a9d8c1" stroke="#a9d8c1" stroke-width="1.51"/><path d="M387,305L416,281L342,234Z" fill="#287ab4" stroke="#287ab4" stroke-width="1.51"/><path d="M479,-30L404,-50L388,-24Z" fill="#9cbdb9" stroke="#9cbdb9" stroke-width="1.51"/><path d="M267,-53L203,-33L269,7Z" fill="#aedcb9" stroke="#aedcb9" stroke-width="1.51"/><path d="M132,-31L134,62L189,53Z" fill="#b5e1b6" stroke="#b5e1b6" stroke-width="1.51"/><path d="M189,53L134,62L215,81Z" fill="#96d5b9" stroke="#96d5b9" stroke-width="1.51"/><path d="M116,149L172,206L191,145Z" fill="#74c2be" stroke="#74c2be" stroke-width="1.51"/><path d="M172,206L161,252L190,234Z" fill="#66a9b9" stroke="#66a9b9" stroke-width="1.51"/><path d="M190,234L161,252L239,278Z" fill="#5c9bb6" stroke="#5c9bb6" stroke-width="1.51"/><path d="M314,302L387,305L342,234Z" fill="#317db4" stroke="#317db4" stroke-width="1.51"/><path d="M267,-53L199,-62L203,-33Z" fill="#b7e0bd" stroke="#b7e0bd" stroke-width="1.51"/><path d="M374,-52L314,-79L312,-20Z" fill="#a5d1c1" stroke="#a5d1c1" stroke-width="1.51"/><path d="M458,-84L314,-79L374,-52Z" fill="#a3c9c7" stroke="#a3c9c7" stroke-width="1.51"/><path d="M134,62L117,118L191,145Z" fill="#8cd0bb" stroke="#8cd0bb" stroke-width="1.51"/><path d="M117,118L116,149L191,145Z" fill="#84ccbd" stroke="#84ccbd" stroke-width="1.51"/><path d="M147,213L161,252L172,206Z" fill="#6daebb" stroke="#6daebb" stroke-width="1.51"/><path d="M103,275L161,252L147,213Z" fill="#76a7b6" stroke="#76a7b6" stroke-width="1.51"/><path d="M484,131L526,140L486,119Z" fill="#458db5" stroke="#458db5" stroke-width="1.51"/><path d="M534,60L506,6L448,38Z" fill="#80a0b1" stroke="#80a0b1" stroke-width="1.51"/><path d="M448,38L479,-30L388,-24Z" fill="#92b5b6" stroke="#92b5b6" stroke-width="1.51"/><path d="M508,208L526,140L484,131Z" fill="#3586b5" stroke="#3586b5" stroke-width="1.51"/><path d="M508,208L484,131L462,215Z" fill="#2c84b7" stroke="#2c84b7" stroke-width="1.51"/><path d="M470,273L462,215L416,281Z" fill="#2372b2" stroke="#2372b2" stroke-width="1.51"/><path d="M470,273L508,208L462,215Z" fill="#2374b3" stroke="#2374b3" stroke-width="1.51"/><path d="M256,323L305,265L239,278Z" fill="#4786b2" stroke="#4786b2" stroke-width="1.51"/><path d="M291,360L344,330L314,302Z" fill="#3c71ac" stroke="#3c71ac" stroke-width="1.51"/><path d="M314,302L344,330L387,305Z" fill="#3572af" stroke="#3572af" stroke-width="1.51"/><path d="M208,346L256,323L239,278Z" fill="#5380ac" stroke="#5380ac" stroke-width="1.51"/><path d="M441,321L416,281L387,305Z" fill="#2869ae" stroke="#2869ae" stroke-width="1.51"/><path d="M441,321L470,273L416,281Z" fill="#2666ac" stroke="#2666ac" stroke-width="1.51"/><path d="M203,-33L132,-31L189,53Z" fill="#b8e2b6" stroke="#b8e2b6" stroke-width="1.51"/><path d="M314,-79L199,-62L267,-53Z" fill="#b2ddc4" stroke="#b2ddc4" stroke-width="1.51"/><path d="M534,60L448,38L486,119Z" fill="#689bb3" stroke="#689bb3" stroke-width="1.51"/><path d="M506,6L479,-30L448,38Z" fill="#8da9b3" stroke="#8da9b3" stroke-width="1.51"/><path d="M404,-50L458,-84L374,-52Z" fill="#a0c1c2" stroke="#a0c1c2" stroke-width="1.51"/><path d="M526,140L540,103L486,119Z" fill="#4b8bb3" stroke="#4b8bb3" stroke-width="1.51"/><path d="M548,137L540,103L526,140Z" fill="#4985b2" stroke="#4985b2" stroke-width="1.51"/><path d="M540,103L534,60L486,119Z" fill="#598fb1" stroke="#598fb1" stroke-width="1.51"/><path d="M586,180L548,137L526,140Z" fill="#3b7eb1" stroke="#3b7eb1" stroke-width="1.51"/><path d="M589,96L565,22L534,60Z" fill="#718dac" stroke="#718dac" stroke-width="1.51"/><path d="M117,118L88,160L116,149Z" fill="#8fcfbc" stroke="#8fcfbc" stroke-width="1.51"/><path d="M134,62L90,82L117,118Z" fill="#a0d9b8" stroke="#a0d9b8" stroke-width="1.51"/><path d="M82,62L90,82L134,62Z" fill="#afdfb7" stroke="#afdfb7" stroke-width="1.51"/><path d="M384,360L441,321L387,305Z" fill="#2b63aa" stroke="#2b63aa" stroke-width="1.51"/><path d="M116,149L88,160L147,213Z" fill="#85c5bd" stroke="#85c5bd" stroke-width="1.51"/><path d="M45,114L88,160L117,118Z" fill="#99d4bb" stroke="#99d4bb" stroke-width="1.51"/><path d="M256,323L291,360L314,302Z" fill="#4376ad" stroke="#4376ad" stroke-width="1.51"/><path d="M344,330L384,360L387,305Z" fill="#3267ab" stroke="#3267ab" stroke-width="1.51"/><path d="M208,346L256,351L256,323Z" fill="#5078a6" stroke="#5078a6" stroke-width="1.51"/><path d="M256,351L291,360L256,323Z" fill="#4674a5" stroke="#4674a5" stroke-width="1.51"/><path d="M199,-62L132,-31L203,-33Z" fill="#c2e6b9" stroke="#c2e6b9" stroke-width="1.51"/><path d="M90,82L45,114L117,118Z" fill="#a2d9b9" stroke="#a2d9b9" stroke-width="1.51"/><path d="M61,6L82,62L134,62Z" fill="#c0e6b5" stroke="#c0e6b5" stroke-width="1.51"/><path d="M359,377L384,360L344,330Z" fill="#2d639f" stroke="#2d639f" stroke-width="1.51"/><path d="M513,-61L458,-84L479,-30Z" fill="#9cadba" stroke="#9cadba" stroke-width="1.51"/><path d="M479,-30L458,-84L404,-50Z" fill="#9db8bc" stroke="#9db8bc" stroke-width="1.51"/><path d="M161,252L182,331L239,278Z" fill="#5e8eb0" stroke="#5e8eb0" stroke-width="1.51"/><path d="M136,314L182,331L161,252Z" fill="#6d8ead" stroke="#6d8ead" stroke-width="1.51"/><path d="M182,331L208,346L239,278Z" fill="#5a82ac" stroke="#5a82ac" stroke-width="1.51"/><path d="M256,351L125,365L291,360Z" fill="#4f759c" stroke="#4f759c" stroke-width="1.51"/><path d="M88,160L75,193L147,213Z" fill="#88c2bc" stroke="#88c2bc" stroke-width="1.51"/><path d="M9,147L75,193L88,160Z" fill="#96cdbc" stroke="#96cdbc" stroke-width="1.51"/><path d="M125,365L359,377L291,360Z" fill="#436f99" stroke="#436f99" stroke-width="1.51"/><path d="M291,360L359,377L344,330Z" fill="#33699f" stroke="#33699f" stroke-width="1.51"/><path d="M522,318L528,274L470,273Z" fill="#2457a5" stroke="#2457a5" stroke-width="1.51"/><path d="M470,273L528,274L508,208Z" fill="#2366ac" stroke="#2366ac" stroke-width="1.51"/><path d="M508,208L586,180L526,140Z" fill="#337ab2" stroke="#337ab2" stroke-width="1.51"/><path d="M478,342L470,273L441,321Z" fill="#285aa6" stroke="#285aa6" stroke-width="1.51"/><path d="M478,342L441,321L384,360Z" fill="#2858a1" stroke="#2858a1" stroke-width="1.51"/><path d="M528,274L546,251L508,208Z" fill="#2564ab" stroke="#2564ab" stroke-width="1.51"/><path d="M75,193L103,275L147,213Z" fill="#82b3b9" stroke="#82b3b9" stroke-width="1.51"/><path d="M589,96L540,103L548,137Z" fill="#5283ae" stroke="#5283ae" stroke-width="1.51"/><path d="M589,96L534,60L540,103Z" fill="#5f89ae" stroke="#5f89ae" stroke-width="1.51"/><path d="M534,60L565,22L506,6Z" fill="#8399ad" stroke="#8399ad" stroke-width="1.51"/><path d="M506,6L513,-61L479,-30Z" fill="#97a8b0" stroke="#97a8b0" stroke-width="1.51"/><path d="M103,275L136,314L161,252Z" fill="#7698b0" stroke="#7698b0" stroke-width="1.51"/><path d="M182,331L125,365L208,346Z" fill="#647da0" stroke="#647da0" stroke-width="1.51"/><path d="M565,8L513,-61L506,6Z" fill="#93a0ad" stroke="#93a0ad" stroke-width="1.51"/><path d="M565,22L565,8L506,6Z" fill="#8a98ac" stroke="#8a98ac" stroke-width="1.51"/><path d="M565,22L615,48L565,8Z" fill="#858fa9" stroke="#858fa9" stroke-width="1.51"/><path d="M629,132L589,96L548,137Z" fill="#4e7cac" stroke="#4e7cac" stroke-width="1.51"/><path d="M506,387L478,342L384,360Z" fill="#214e94" stroke="#214e94" stroke-width="1.51"/><path d="M528,274L577,322L546,251Z" fill="#2551a2" stroke="#2551a2" stroke-width="1.51"/><path d="M546,251L586,180L508,208Z" fill="#286daf" stroke="#286daf" stroke-width="1.51"/><path d="M82,62L45,114L90,82Z" fill="#acddb7" stroke="#acddb7" stroke-width="1.51"/><path d="M31,312L102,301L103,275Z" fill="#8898ac" stroke="#8898ac" stroke-width="1.51"/><path d="M40,27L45,114L82,62Z" fill="#bae3b6" stroke="#bae3b6" stroke-width="1.51"/><path d="M132,-31L61,6L134,62Z" fill="#c9e9b4" stroke="#c9e9b4" stroke-width="1.51"/><path d="M199,-62L116,-70L132,-31Z" fill="#cdebbc" stroke="#cdebbc" stroke-width="1.51"/><path d="M314,-79L116,-70L199,-62Z" fill="#bde3c3" stroke="#bde3c3" stroke-width="1.51"/><path d="M103,275L102,301L136,314Z" fill="#7e95ad" stroke="#7e95ad" stroke-width="1.51"/><path d="M136,314L125,365L182,331Z" fill="#7082a5" stroke="#7082a5" stroke-width="1.51"/><path d="M26,240L103,275L75,193Z" fill="#8cb2b6" stroke="#8cb2b6" stroke-width="1.51"/><path d="M92,-71L61,6L132,-31Z" fill="#dbf0b3" stroke="#dbf0b3" stroke-width="1.51"/><path d="M630,217L629,132L586,180Z" fill="#366aa8" stroke="#366aa8" stroke-width="1.51"/><path d="M478,342L522,318L470,273Z" fill="#2654a3" stroke="#2654a3" stroke-width="1.51"/><path d="M61,6L40,27L82,62Z" fill="#cdebb4" stroke="#cdebb4" stroke-width="1.51"/><path d="M40,-9L40,27L61,6Z" fill="#d7efb3" stroke="#d7efb3" stroke-width="1.51"/><path d="M116,-70L92,-71L132,-31Z" fill="#d9f0bb" stroke="#d9f0bb" stroke-width="1.51"/><path d="M314,-79L92,-71L116,-70Z" fill="#c7e9c3" stroke="#c7e9c3" stroke-width="1.51"/><path d="M9,147L88,160L45,114Z" fill="#9ed5bc" stroke="#9ed5bc" stroke-width="1.51"/><path d="M9,147L29,209L75,193Z" fill="#98c9bb" stroke="#98c9bb" stroke-width="1.51"/><path d="M589,96L615,48L565,22Z" fill="#7488a9" stroke="#7488a9" stroke-width="1.51"/><path d="M565,8L591,-44L513,-61Z" fill="#989baa" stroke="#989baa" stroke-width="1.51"/><path d="M622,84L615,48L589,96Z" fill="#6680a7" stroke="#6680a7" stroke-width="1.51"/><path d="M629,132L622,84L589,96Z" fill="#557aa7" stroke="#557aa7" stroke-width="1.51"/><path d="M-14,98L9,147L45,114Z" fill="#acdbba" stroke="#acdbba" stroke-width="1.51"/><path d="M92,-71L40,-9L61,6Z" fill="#def2b2" stroke="#def2b2" stroke-width="1.51"/><path d="M586,180L629,132L548,137Z" fill="#3e77ae" stroke="#3e77ae" stroke-width="1.51"/><path d="M630,217L586,180L546,251Z" fill="#2b64ab" stroke="#2b64ab" stroke-width="1.51"/><path d="M-3,153L9,147L-14,98Z" fill="#acdaba" stroke="#acdaba" stroke-width="1.51"/><path d="M102,301L125,365L136,314Z" fill="#7b89a8" stroke="#7b89a8" stroke-width="1.51"/><path d="M208,346L125,365L256,351Z" fill="#58799d" stroke="#58799d" stroke-width="1.51"/><path d="M69,353L125,365L102,301Z" fill="#8188a3" stroke="#8188a3" stroke-width="1.51"/><path d="M29,209L26,240L75,193Z" fill="#93beba" stroke="#93beba" stroke-width="1.51"/><path d="M-15,236L26,240L29,209Z" fill="#98b9b8" stroke="#98b9b8" stroke-width="1.51"/><path d="M513,-61L667,-74L458,-84Z" fill="#9c9fb8" stroke="#9c9fb8" stroke-width="1.51"/><path d="M625,-32L591,-44L565,8Z" fill="#9491a7" stroke="#9491a7" stroke-width="1.51"/><path d="M9,147L-3,153L29,209Z" fill="#9fcfbb" stroke="#9fcfbb" stroke-width="1.51"/><path d="M-14,98L45,114L40,27Z" fill="#bae2b6" stroke="#bae2b6" stroke-width="1.51"/><path d="M631,249L630,217L546,251Z" fill="#2957a5" stroke="#2957a5" stroke-width="1.51"/><path d="M478,342L506,387L522,318Z" fill="#224595" stroke="#224595" stroke-width="1.51"/><path d="M359,377L506,387L384,360Z" fill="#205592" stroke="#205592" stroke-width="1.51"/><path d="M38,387L506,387L359,377Z" fill="#306792" stroke="#306792" stroke-width="1.51"/><path d="M577,322L528,274L522,318Z" fill="#264b9f" stroke="#264b9f" stroke-width="1.51"/><path d="M565,387L577,322L522,318Z" fill="#233d94" stroke="#233d94" stroke-width="1.51"/><path d="M40,-9L-2,30L40,27Z" fill="#d9f0b3" stroke="#d9f0b3" stroke-width="1.51"/><path d="M-28,4L-2,30L40,-9Z" fill="#dff2b2" stroke="#dff2b2" stroke-width="1.51"/><path d="M-2,30L-14,98L40,27Z" fill="#cceab4" stroke="#cceab4" stroke-width="1.51"/><path d="M682,160L664,83L629,132Z" fill="#44709a" stroke="#44709a" stroke-width="1.51"/><path d="M577,322L631,249L546,251Z" fill="#264ca0" stroke="#264ca0" stroke-width="1.51"/><path d="M31,312L69,353L102,301Z" fill="#8a8fa8" stroke="#8a8fa8" stroke-width="1.51"/><path d="M664,83L615,48L622,84Z" fill="#647d9f" stroke="#647d9f" stroke-width="1.51"/><path d="M665,26L625,-32L615,48Z" fill="#82879d" stroke="#82879d" stroke-width="1.51"/><path d="M615,48L625,-32L565,8Z" fill="#8a8ca6" stroke="#8a8ca6" stroke-width="1.51"/><path d="M-15,236L31,312L26,240Z" fill="#95a9b2" stroke="#95a9b2" stroke-width="1.51"/><path d="M26,240L31,312L103,275Z" fill="#8da2af" stroke="#8da2af" stroke-width="1.51"/><path d="M629,132L664,83L622,84Z" fill="#53779f" stroke="#53779f" stroke-width="1.51"/><path d="M682,160L629,132L630,217Z" fill="#32689e" stroke="#32689e" stroke-width="1.51"/><path d="M-31,225L-15,236L29,209Z" fill="#9cbdb9" stroke="#9cbdb9" stroke-width="1.51"/><path d="M-31,225L29,209L-3,153Z" fill="#9ec8bb" stroke="#9ec8bb" stroke-width="1.51"/><path d="M625,-32L625,-57L591,-44Z" fill="#968fa7" stroke="#968fa7" stroke-width="1.51"/><path d="M591,-44L625,-57L513,-61Z" fill="#9a98af" stroke="#9a98af" stroke-width="1.51"/><path d="M667,-74L625,-57L625,-32Z" fill="#928ca1" stroke="#928ca1" stroke-width="1.51"/><path d="M92,-71L20,-71L40,-9Z" fill="#e6f5b8" stroke="#e6f5b8" stroke-width="1.51"/><path d="M-21,-78L20,-71L92,-71Z" fill="#edf8bf" stroke="#edf8bf" stroke-width="1.51"/><path d="M-21,-78L92,-71L314,-79Z" fill="#d7efc2" stroke="#d7efc2" stroke-width="1.51"/><path d="M664,83L665,26L615,48Z" fill="#6e7f9a" stroke="#6e7f9a" stroke-width="1.51"/><path d="M577,322L645,294L631,249Z" fill="#244296" stroke="#244296" stroke-width="1.51"/><path d="M506,387L565,387L522,318Z" fill="#1e3d8b" stroke="#1e3d8b" stroke-width="1.51"/><path d="M-15,236L-39,335L31,312Z" fill="#989ead" stroke="#989ead" stroke-width="1.51"/><path d="M-60,152L-31,225L-3,153Z" fill="#a4cfc0" stroke="#a4cfc0" stroke-width="1.51"/><path d="M680,194L682,160L630,217Z" fill="#295f98" stroke="#295f98" stroke-width="1.51"/><path d="M664,83L679,-17L665,26Z" fill="#768092" stroke="#768092" stroke-width="1.51"/><path d="M680,194L630,217L631,249Z" fill="#24589b" stroke="#24589b" stroke-width="1.51"/><path d="M-14,98L-60,152L-3,153Z" fill="#addbbf" stroke="#addbbf" stroke-width="1.51"/><path d="M-2,30L-61,33L-14,98Z" fill="#cfebb9" stroke="#cfebb9" stroke-width="1.51"/><path d="M20,-71L-28,4L40,-9Z" fill="#e9f6b1" stroke="#e9f6b1" stroke-width="1.51"/><path d="M690,280L680,194L631,249Z" fill="#1f4d90" stroke="#1f4d90" stroke-width="1.51"/><path d="M661,304L645,294L623,363Z" fill="#20338a" stroke="#20338a" stroke-width="1.51"/><path d="M-89,105L-60,152L-14,98Z" fill="#b4dfc2" stroke="#b4dfc2" stroke-width="1.51"/><path d="M682,160L679,-17L664,83Z" fill="#5a7692" stroke="#5a7692" stroke-width="1.51"/><path d="M665,26L679,-17L625,-32Z" fill="#858695" stroke="#858695" stroke-width="1.51"/><path d="M31,312L38,387L69,353Z" fill="#88899d" stroke="#88899d" stroke-width="1.51"/><path d="M69,353L38,387L125,365Z" fill="#7c8293" stroke="#7c8293" stroke-width="1.51"/><path d="M125,365L38,387L359,377Z" fill="#5a7691" stroke="#5a7691" stroke-width="1.51"/><path d="M-39,335L38,387L31,312Z" fill="#908c9f" stroke="#908c9f" stroke-width="1.51"/><path d="M623,363L645,294L577,322Z" fill="#243491" stroke="#243491" stroke-width="1.51"/><path d="M645,294L690,280L631,249Z" fill="#1e428e" stroke="#1e428e" stroke-width="1.51"/><path d="M565,387L623,363L577,322Z" fill="#203289" stroke="#203289" stroke-width="1.51"/><path d="M-28,4L-61,33L-2,30Z" fill="#dff3b8" stroke="#dff3b8" stroke-width="1.51"/><path d="M-93,3L-61,33L-28,4Z" fill="#e4f5bd" stroke="#e4f5bd" stroke-width="1.51"/><path d="M20,-71L-21,-78L-28,4Z" fill="#f0f9b8" stroke="#f0f9b8" stroke-width="1.51"/><path d="M458,-84L-21,-78L314,-79Z" fill="#b6dfc9" stroke="#b6dfc9" stroke-width="1.51"/><path d="M679,-17L667,-74L625,-32Z" fill="#8d8998" stroke="#8d8998" stroke-width="1.51"/><path d="M625,-57L667,-74L513,-61Z" fill="#9a92b0" stroke="#9a92b0" stroke-width="1.51"/><path d="M682,160L690,280L679,-17Z" fill="#366a93" stroke="#366a93" stroke-width="1.51"/><path d="M680,194L690,280L682,160Z" fill="#1e5791" stroke="#1e5791" stroke-width="1.51"/><path d="M661,304L690,280L645,294Z" fill="#1d3b88" stroke="#1d3b88" stroke-width="1.51"/><path d="M682,355L690,280L661,304Z" fill="#1b3281" stroke="#1b3281" stroke-width="1.51"/><path d="M-61,33L-89,105L-14,98Z" fill="#c4e7c0" stroke="#c4e7c0" stroke-width="1.51"/><path d="M-60,152L-88,198L-31,225Z" fill="#a3cbc5" stroke="#a3cbc5" stroke-width="1.51"/><path d="M-79,296L-39,335L-15,236Z" fill="#9aa2b4" stroke="#9aa2b4" stroke-width="1.51"/><path d="M-93,3L-89,105L-61,33Z" fill="#d7efc3" stroke="#d7efc3" stroke-width="1.51"/><path d="M-89,105L-88,198L-60,152Z" fill="#abd9ca" stroke="#abd9ca" stroke-width="1.51"/><path d="M-79,296L-15,236L-31,225Z" fill="#9cb1ba" stroke="#9cb1ba" stroke-width="1.51"/><path d="M-88,198L-84,237L-31,225Z" fill="#a1c1c4" stroke="#a1c1c4" stroke-width="1.51"/><path d="M-21,-78L-68,-58L-28,4Z" fill="#f2f9bc" stroke="#f2f9bc" stroke-width="1.51"/><path d="M-68,-58L-93,3L-28,4Z" fill="#eef8bd" stroke="#eef8bd" stroke-width="1.51"/><path d="M-89,105L-93,3L-88,198Z" fill="#bce3c8" stroke="#bce3c8" stroke-width="1.51"/><path d="M623,363L682,355L661,304Z" fill="#1c2c80" stroke="#1c2c80" stroke-width="1.51"/><path d="M565,387L682,355L623,363Z" fill="#1a2a7c" stroke="#1a2a7c" stroke-width="1.51"/><path d="M-88,372L-79,296L-84,237Z" fill="#9d9eb9" stroke="#9d9eb9" stroke-width="1.51"/><path d="M-84,237L-79,296L-31,225Z" fill="#9eb2be" stroke="#9eb2be" stroke-width="1.51"/><path d="M-39,335L-43,374L38,387Z" fill="#8d8897" stroke="#8d8897" stroke-width="1.51"/><path d="M-88,372L-43,374L-39,335Z" fill="#918ba1" stroke="#918ba1" stroke-width="1.51"/><path d="M-43,374L-88,372L38,387Z" fill="#8a8693" stroke="#8a8693" stroke-width="1.51"/><path d="M-79,296L-88,372L-39,335Z" fill="#9a91b1" stroke="#9a91b1" stroke-width="1.51"/><path d="M-88,198L-88,372L-84,237Z" fill="#9eabbf" stroke="#9eabbf" stroke-width="1.51"/><path d="M-93,3L-88,372L-88,198Z" fill="#a5cccb" stroke="#a5cccb" stroke-width="1.51"/></svg>